<?xml version="1.0" encoding="utf-8"?>
<!-- Generator: Adobe Illustrator 24.0.1, SVG Export Plug-In . SVG Version: 6.00 Build 0)  -->
<svg version="1.1" id="Layer_1" xmlns="http://www.w3.org/2000/svg" xmlns:xlink="http://www.w3.org/1999/xlink" x="0px" y="0px"
	 viewBox="0 0 350 350" style="enable-background:new 0 0 350 350;" xml:space="preserve">
<style type="text/css">
	.st0{fill:#18181B;}
	.st1{fill:#2EB454;}
</style>
<rect class="st0" width="350" height="350"/>
<path class="st1" d="M175,239.7c18.4,0,34.2-6.2,47.4-18.7c13.2-12.5,19.7-27.8,19.7-46c0-18.7-6.5-34.5-19.5-47.5
	c-13-13-28.9-19.5-47.5-19.5c-18.2,0-33.5,6.6-46,19.7s-18.7,28.9-18.7,47.4c0,18.2,6.2,33.5,18.7,46
	C141.5,233.5,156.8,239.7,175,239.7z M175,190.8c-4.5,0-8.2-1.5-11.2-4.5c-3-3-4.5-6.8-4.5-11.2s1.5-8.2,4.5-11.2
	c3-3,6.8-4.5,11.2-4.5s8.2,1.5,11.2,4.5c3,3,4.5,6.8,4.5,11.2s-1.5,8.2-4.5,11.2C183.2,189.3,179.5,190.8,175,190.8z M175,332.8
	c-21.6,0-42-4.1-61.2-12.4c-19.2-8.3-36-19.6-50.3-33.9s-25.6-31.1-33.9-50.3S17.2,196.6,17.2,175c0-21.8,4.1-42.4,12.4-61.6
	s19.6-35.9,33.9-50.1s31.1-25.5,50.3-33.7s39.6-12.4,61.2-12.4c21.8,0,42.4,4.1,61.6,12.4s35.9,19.5,50.1,33.7s25.5,30.9,33.7,50.1
	c8.3,19.2,12.4,39.7,12.4,61.6c0,21.6-4.1,42-12.4,61.2c-8.3,19.2-19.5,36-33.7,50.3c-14.2,14.3-30.9,25.6-50.1,33.9
	C217.4,328.7,196.8,332.8,175,332.8z M175,309.2c37.4,0,69.1-13.1,95.1-39.3c26-26.2,39.1-57.8,39.1-94.9c0-37.4-13-69.1-39.1-95.1
	c-26-26-57.7-39.1-95.1-39.1c-37.1,0-68.7,13-94.9,39.1S40.8,137.6,40.8,175c0,37.1,13.1,68.7,39.3,94.9S137.9,309.2,175,309.2z"/>
</svg>
